<svg xmlns="http://www.w3.org/2000/svg" viewBox="0 0 200 200" width="200" height="200">
  <circle cx="100" cy="100" r="90" fill="none" stroke="#1aab8a" stroke-width="4"/>
  <!-- Cat -->
  <path d="M65 120 C65 120 60 65 70 55 L80 70 C80 70 88 50 95 50 C102 50 108 65 108 65" 
        fill="none" stroke="#1aab8a" stroke-width="3.5" stroke-linecap="round" stroke-linejoin="round"/>
  <!-- Cat ear left -->
  <path d="M62 82 L70 55 L80 70" fill="none" stroke="#1aab8a" stroke-width="3.5" stroke-linecap="round" stroke-linejoin="round"/>
  <!-- Cat ear right -->
  <path d="M85 65 L95 50 L102 62" fill="none" stroke="#1aab8a" stroke-width="3.5" stroke-linecap="round" stroke-linejoin="round"/>
  <!-- Cat whiskers -->
  <line x1="50" y1="85" x2="68" y2="82" stroke="#1aab8a" stroke-width="2" stroke-linecap="round"/>
  <line x1="52" y1="92" x2="68" y2="88" stroke="#1aab8a" stroke-width="2" stroke-linecap="round"/>
  <line x1="53" y1="99" x2="68" y2="95" stroke="#1aab8a" stroke-width="2" stroke-linecap="round"/>
  <!-- Cat eye -->
  <path d="M74 76 C74 74 78 72 78 76" fill="none" stroke="#1aab8a" stroke-width="2" stroke-linecap="round"/>
  <!-- Cat body -->
  <path d="M65 120 C58 125 60 138 68 140 C76 142 85 135 85 128 C85 135 82 142 75 145" 
        fill="none" stroke="#1aab8a" stroke-width="3.5" stroke-linecap="round" stroke-linejoin="round"/>
  <!-- Dog head and body -->
  <path d="M108 65 C115 55 125 55 132 60 C140 66 142 76 140 85 L138 95 C138 95 142 90 148 88 C152 87 155 90 152 95 C149 100 142 102 138 100 L135 105 C135 105 138 115 135 125 C132 135 122 142 115 145" 
        fill="none" stroke="#1aab8a" stroke-width="3.5" stroke-linecap="round" stroke-linejoin="round"/>
  <!-- Dog ear -->
  <path d="M120 62 C118 55 122 48 128 52 C132 55 130 62 128 65" fill="none" stroke="#1aab8a" stroke-width="3" stroke-linecap="round"/>
  <!-- Dog eye -->
  <circle cx="125" cy="72" r="2.5" fill="#1aab8a"/>
  <!-- Dog nose -->
  <ellipse cx="138" cy="86" rx="3" ry="2.5" fill="#1aab8a"/>
  <!-- Shared sitting line -->
  <path d="M75 145 C85 148 105 148 115 145" fill="none" stroke="#1aab8a" stroke-width="3" stroke-linecap="round"/>
</svg>
